# xmcd
#
# Track frame offsets: 
#        150
#        22227
#        34061
#        67793
#        90534
#        105454
#        120442
#        132556
#        148224
#        162956
#
# Disc length: 2489 seconds
#
# Revision: 0
# Processed by: cddbd v1.5.2PL0 Copyright (c) Steve Scherf et al.
# Submitted via: ExactAudioCopy v0.99pb3
#
DISCID=8509b70a
DTITLE=Ray Charles - Best of Ray Charles
DYEAR=1900
DGENRE=
TTITLE0=What'd I Say?
TTITLE1=Hit the Road Jack
TTITLE2=Georgia on my Mind
TTITLE3=I've got a Woman
TTITLE4=Hallelujah I Love Her So
TTITLE5=Let's Go Get Stoned
TTITLE6=Mess Around
TTITLE7=You Are My Sunshine
TTITLE8=Eleanor Rigby
TTITLE9=Night Time is the Right Time
EXTD=
EXTT0=
EXTT1=
EXTT2=
EXTT3=
EXTT4=
EXTT5=
EXTT6=
EXTT7=
EXTT8=
EXTT9=
PLAYORDER=
